<svg xmlns="http://www.w3.org/2000/svg">
<symbol id="phone">
    <path d="M13.7455 13.0923C13.4909 13.5935 12.9818 13.8441 12.4727 14.0947C11.8364 14.4706 11.3273 14.5959 10.6909 14.5959C9.8 14.5959 8.90909 14.22 8.14545 13.9694C7.50909 13.7188 7 13.4682 6.36364 13.2176C4.58182 12.09 2.54545 10.0853 1.52727 8.45643C1.14545 7.82996 0.890909 7.32878 0.636364 6.70231C0.381818 5.82525 0 5.07349 0 4.07113C0 3.44466 0.127273 2.81819 0.509091 2.19172C0.763636 1.69054 1.01818 1.18936 1.52727 0.938771C1.90909 0.938771 2.54545 0.813477 2.92727 0.813477C3.05455 0.813477 3.05455 0.813477 3.18182 0.813477C3.43636 0.938771 3.56364 1.31465 3.69091 1.56524C3.94545 2.19172 4.32727 2.69289 4.58182 3.31936C4.83636 3.56995 5.09091 3.82054 5.09091 4.07113C5.09091 4.6976 3.30909 5.57466 3.30909 6.07584C3.30909 6.32643 3.56364 6.70231 3.69091 6.9529C4.70909 8.70702 5.98182 9.95997 7.76364 10.9623C8.01818 11.0876 8.4 11.3382 8.65455 11.3382C9.16364 11.3382 10.0545 9.58408 10.6909 9.58408C10.9455 9.58408 11.2 9.83467 11.4545 10.0853C11.9636 10.4611 12.6 10.7117 13.1091 11.0876C13.3636 11.2129 13.7455 11.3382 13.8727 11.5888C13.8727 11.7141 13.8727 11.7141 13.8727 11.8394C14 12.09 13.8727 12.7164 13.7455 13.0923Z"/>
</symbol>

<symbol id="triangle">
    <path d="M12.5 1L1 35L35.5 24.5L12.5 1Z"/>
</symbol>

<symbol id="vk">
    <path d="M12 0C5.37423 0 0 5.37423 0 12C0 18.6258 5.37423 24 12 24C18.6258 24 24 18.6258 24 12C24 5.37423 18.6258 0 12 0ZM18.0859 13.3006C18.6503 13.8405 19.2393 14.3558 19.7301 14.9693C19.9509 15.2393 20.1718 15.5092 20.319 15.8282C20.5399 16.2699 20.3436 16.7607 19.9509 16.7853H17.4969C16.8589 16.8344 16.3681 16.589 15.9264 16.1472C15.5828 15.8037 15.2638 15.4356 14.9448 15.0675C14.8221 14.9202 14.6748 14.773 14.5031 14.6748C14.1595 14.454 13.865 14.5276 13.6933 14.8712C13.4969 15.2393 13.4479 15.6319 13.4233 16.0245C13.3988 16.6135 13.227 16.7607 12.638 16.7853C11.3865 16.8344 10.2086 16.6626 9.12883 16.0245C8.17178 15.4601 7.41104 14.6994 6.77301 13.816C5.49693 12.0982 4.53988 10.2086 3.65644 8.26994C3.46012 7.82822 3.60736 7.60736 4.09816 7.58282C4.90798 7.55828 5.69325 7.55828 6.50307 7.58282C6.82209 7.58282 7.04294 7.77914 7.16564 8.07362C7.60736 9.12883 8.1227 10.1595 8.78528 11.092C8.95705 11.3374 9.15337 11.5828 9.39877 11.7791C9.69325 11.9755 9.88957 11.9018 10.0368 11.5828C10.1104 11.3865 10.1595 11.1656 10.184 10.9448C10.2577 10.2086 10.2577 9.47239 10.135 8.7362C10.0613 8.2454 9.81595 7.95092 9.34969 7.85276C9.10429 7.80368 9.15337 7.73006 9.25153 7.58282C9.44785 7.36196 9.64417 7.21472 10.0123 7.21472H12.7853C13.227 7.31288 13.3252 7.48466 13.3742 7.92638V11.0184C13.3742 11.1902 13.4479 11.7055 13.7669 11.8037C14.0123 11.8773 14.184 11.681 14.3313 11.5337C14.9939 10.8221 15.4601 9.98773 15.9018 9.12883C16.0982 8.7362 16.2454 8.34356 16.4172 7.95092C16.5399 7.65644 16.7117 7.5092 17.0552 7.5092H19.7301C19.8037 7.5092 19.8773 7.5092 19.9755 7.53374C20.4172 7.60736 20.5399 7.80368 20.4172 8.2454C20.1963 8.93251 19.7791 9.52147 19.362 10.0859C18.9202 10.6994 18.4294 11.2883 17.9877 11.9264C17.546 12.5153 17.5706 12.8098 18.0859 13.3006Z"/>
</symbol>

<symbol id="facebook">
    <path d="M24 12C24 5.37188 18.6281 0 12 0C5.37188 0 0 5.37188 0 12C0 18.6281 5.37188 24 12 24C12.0703 24 12.1406 24 12.2109 23.9953V14.6578H9.63281V11.6531H12.2109V9.44062C12.2109 6.87656 13.7766 5.47969 16.0641 5.47969C17.1609 5.47969 18.1031 5.55938 18.375 5.59688V8.27813H16.8C15.5578 8.27813 15.3141 8.86875 15.3141 9.73594V11.6484H18.2906L17.9016 14.6531H15.3141V23.5359C20.3297 22.0969 24 17.4797 24 12Z"/>
</symbol>

<symbol id="instagram">
    <g clip-path="url(#clip0_2_1212)">
    <g clip-path="url(#clip1_2_1212)">
        <path d="M14.2969 12C14.2969 13.2703 13.2703 14.2969 12 14.2969C10.7297 14.2969 9.70312 13.2703 9.70312 12C9.70312 10.7297 10.7297 9.70312 12 9.70312C13.2703 9.70312 14.2969 10.7297 14.2969 12Z"/>
        <path d="M17.3719 7.93593C17.2594 7.63593 17.0859 7.36405 16.8563 7.14374C16.6359 6.91405 16.3641 6.74061 16.0641 6.62811C15.8203 6.53436 15.4547 6.42186 14.7844 6.38905C14.0578 6.35624 13.8375 6.34686 12 6.34686C10.1578 6.34686 9.94219 6.35155 9.21563 6.38905C8.54531 6.42186 8.17969 6.53436 7.93594 6.62811C7.63594 6.74061 7.36406 6.91405 7.14375 7.14374C6.91406 7.36405 6.74062 7.63593 6.62812 7.93593C6.53437 8.17968 6.42187 8.5453 6.38906 9.21561C6.35625 9.94218 6.34687 10.1578 6.34687 12C6.34687 13.8375 6.35625 14.0578 6.38906 14.7844C6.42187 15.4547 6.52969 15.8203 6.62812 16.0641C6.74062 16.364 6.91406 16.6359 7.14375 16.8562C7.36406 17.0859 7.63594 17.2594 7.93594 17.3719C8.17969 17.4656 8.54531 17.5781 9.21563 17.6109C9.94219 17.6437 10.1578 17.6531 12 17.6531C13.8422 17.6531 14.0578 17.6484 14.7844 17.6109C15.4547 17.5781 15.8203 17.4703 16.0641 17.3719C16.6641 17.1422 17.1422 16.6641 17.3719 16.0641C17.4656 15.8203 17.5781 15.4547 17.6109 14.7844C17.6438 14.0578 17.6531 13.8375 17.6531 12C17.6531 10.1578 17.6484 9.94218 17.6109 9.21561C17.5781 8.5453 17.4656 8.17968 17.3719 7.93593ZM12 15.5391C10.0453 15.5391 8.46094 13.9547 8.46094 12C8.46094 10.0453 10.0453 8.46093 12 8.46093C13.9547 8.46093 15.5391 10.0453 15.5391 12C15.5391 13.9547 13.9547 15.5391 12 15.5391ZM15.6797 9.14999C15.225 9.14999 14.8547 8.77968 14.8547 8.32499C14.8547 7.8703 15.225 7.49999 15.6797 7.49999C16.1344 7.49999 16.5047 7.8703 16.5047 8.32499C16.5047 8.77968 16.1344 9.14999 15.6797 9.14999Z"/>
        <path d="M12 0C5.37188 0 0 5.37188 0 12C0 18.6281 5.37188 24 12 24C18.6281 24 24 18.6281 24 12C24 5.37188 18.6281 0 12 0ZM18.8484 14.8406C18.8156 15.5719 18.6984 16.0734 18.5297 16.5141C18.1734 17.4375 17.4422 18.1734 16.5141 18.5297C16.0781 18.6984 15.5766 18.8156 14.8406 18.8484C14.1047 18.8813 13.8703 18.8906 12 18.8906C10.1297 18.8906 9.89531 18.8813 9.15937 18.8484C8.42812 18.8156 7.92656 18.6984 7.48594 18.5297C7.02656 18.3562 6.60937 18.0844 6.26719 17.7328C5.91562 17.3906 5.64375 16.9734 5.47031 16.5141C5.30156 16.0781 5.18438 15.5766 5.15156 14.8406C5.11875 14.1047 5.10938 13.8703 5.10938 12C5.10938 10.1297 5.11875 9.89531 5.15156 9.15937C5.18438 8.42812 5.30156 7.92656 5.47031 7.48594C5.64375 7.02656 5.91562 6.60937 6.26719 6.26719C6.60937 5.91562 7.02656 5.64375 7.48594 5.47031C7.92656 5.30156 8.42344 5.18438 9.15937 5.15156C9.89531 5.11875 10.1297 5.10938 12 5.10938C13.8703 5.10938 14.1047 5.11875 14.8406 5.15156C15.5719 5.18438 16.0734 5.30156 16.5141 5.47031C16.9734 5.64375 17.3906 5.91562 17.7328 6.26719C18.0844 6.60937 18.3562 7.02656 18.5297 7.48594C18.6984 7.92656 18.8156 8.42344 18.8484 9.15937C18.8813 9.89531 18.8906 10.1297 18.8906 12C18.8906 13.8703 18.8813 14.1047 18.8484 14.8406Z"/>
    </g>
    </g>
</symbol>

<symbol id="instagram">
    <g clip-path="url(#clip0_2_1212)">
    <g clip-path="url(#clip1_2_1212)">
        <path d="M14.2969 12C14.2969 13.2703 13.2703 14.2969 12 14.2969C10.7297 14.2969 9.70312 13.2703 9.70312 12C9.70312 10.7297 10.7297 9.70312 12 9.70312C13.2703 9.70312 14.2969 10.7297 14.2969 12Z"/>
        <path d="M17.3719 7.93593C17.2594 7.63593 17.0859 7.36405 16.8563 7.14374C16.6359 6.91405 16.3641 6.74061 16.0641 6.62811C15.8203 6.53436 15.4547 6.42186 14.7844 6.38905C14.0578 6.35624 13.8375 6.34686 12 6.34686C10.1578 6.34686 9.94219 6.35155 9.21563 6.38905C8.54531 6.42186 8.17969 6.53436 7.93594 6.62811C7.63594 6.74061 7.36406 6.91405 7.14375 7.14374C6.91406 7.36405 6.74062 7.63593 6.62812 7.93593C6.53437 8.17968 6.42187 8.5453 6.38906 9.21561C6.35625 9.94218 6.34687 10.1578 6.34687 12C6.34687 13.8375 6.35625 14.0578 6.38906 14.7844C6.42187 15.4547 6.52969 15.8203 6.62812 16.0641C6.74062 16.364 6.91406 16.6359 7.14375 16.8562C7.36406 17.0859 7.63594 17.2594 7.93594 17.3719C8.17969 17.4656 8.54531 17.5781 9.21563 17.6109C9.94219 17.6437 10.1578 17.6531 12 17.6531C13.8422 17.6531 14.0578 17.6484 14.7844 17.6109C15.4547 17.5781 15.8203 17.4703 16.0641 17.3719C16.6641 17.1422 17.1422 16.6641 17.3719 16.0641C17.4656 15.8203 17.5781 15.4547 17.6109 14.7844C17.6438 14.0578 17.6531 13.8375 17.6531 12C17.6531 10.1578 17.6484 9.94218 17.6109 9.21561C17.5781 8.5453 17.4656 8.17968 17.3719 7.93593ZM12 15.5391C10.0453 15.5391 8.46094 13.9547 8.46094 12C8.46094 10.0453 10.0453 8.46093 12 8.46093C13.9547 8.46093 15.5391 10.0453 15.5391 12C15.5391 13.9547 13.9547 15.5391 12 15.5391ZM15.6797 9.14999C15.225 9.14999 14.8547 8.77968 14.8547 8.32499C14.8547 7.8703 15.225 7.49999 15.6797 7.49999C16.1344 7.49999 16.5047 7.8703 16.5047 8.32499C16.5047 8.77968 16.1344 9.14999 15.6797 9.14999Z"/>
        <path d="M12 0C5.37188 0 0 5.37188 0 12C0 18.6281 5.37188 24 12 24C18.6281 24 24 18.6281 24 12C24 5.37188 18.6281 0 12 0ZM18.8484 14.8406C18.8156 15.5719 18.6984 16.0734 18.5297 16.5141C18.1734 17.4375 17.4422 18.1734 16.5141 18.5297C16.0781 18.6984 15.5766 18.8156 14.8406 18.8484C14.1047 18.8813 13.8703 18.8906 12 18.8906C10.1297 18.8906 9.89531 18.8813 9.15937 18.8484C8.42812 18.8156 7.92656 18.6984 7.48594 18.5297C7.02656 18.3562 6.60937 18.0844 6.26719 17.7328C5.91562 17.3906 5.64375 16.9734 5.47031 16.5141C5.30156 16.0781 5.18438 15.5766 5.15156 14.8406C5.11875 14.1047 5.10938 13.8703 5.10938 12C5.10938 10.1297 5.11875 9.89531 5.15156 9.15937C5.18438 8.42812 5.30156 7.92656 5.47031 7.48594C5.64375 7.02656 5.91562 6.60937 6.26719 6.26719C6.60937 5.91562 7.02656 5.64375 7.48594 5.47031C7.92656 5.30156 8.42344 5.18438 9.15937 5.15156C9.89531 5.11875 10.1297 5.10938 12 5.10938C13.8703 5.10938 14.1047 5.11875 14.8406 5.15156C15.5719 5.18438 16.0734 5.30156 16.5141 5.47031C16.9734 5.64375 17.3906 5.91562 17.7328 6.26719C18.0844 6.60937 18.3562 7.02656 18.5297 7.48594C18.6984 7.92656 18.8156 8.42344 18.8484 9.15937C18.8813 9.89531 18.8906 10.1297 18.8906 12C18.8906 13.8703 18.8813 14.1047 18.8484 14.8406Z"/>
    </g>
    </g>
</symbol>

<symbol id="telegram">
    <path d="M12 24C18.6281 24 24 18.6281 24 12C24 5.37188 18.6281 0 12 0C5.37188 0 0 5.37188 0 12C0 18.6281 5.37188 24 12 24ZM5.48906 11.7422L17.0625 7.27969C17.6016 7.0875 18.0703 7.41094 17.8922 8.22187L15.9234 17.5031C15.7781 18.1594 15.3844 18.3234 14.8406 18.0094L11.8406 15.7969L10.3922 17.1891C10.2328 17.3484 10.0969 17.4844 9.7875 17.4844L9.99844 14.4328L15.5625 9.4125C15.8062 9.20156 15.5063 9.07969 15.1875 9.29062L8.31562 13.6172L5.35312 12.6937C4.71094 12.4875 4.69688 12.0516 5.48906 11.7422Z"/>
</symbol>
</svg>


